PathFileType	4	(X/Y/Z)	/Users/rkoike/Documents/python/sports2d/webcam_20251024_144952/webcam_20251024_144952_px_person00.trc
DataRate	CameraRate	NumFrames	NumMarkers	Units	OrigDataRate	OrigDataStartFrame	OrigNumFrames
30	30	7	22	m	30	481	962
Frame#	Time	Hip			RHip			RKnee			RAnkle			RBigToe			RSmallToe			RHeel			LHip			LKnee			LAnkle			LBigToe			LSmallToe			LHeel			Neck			Head			Nose			RShoulder			RElbow			RWrist			LShoulder			LElbow			LWrist			
		X1	Y1	Z1	X2	Y2	Z2	X3	Y3	Z3	X4	Y4	Z4	X5	Y5	Z5	X6	Y6	Z6	X7	Y7	Z7	X8	Y8	Z8	X9	Y9	Z9	X10	Y10	Z10	X11	Y11	Z11	X12	Y12	Z12	X13	Y13	Z13	X14	Y14	Z14	X15	Y15	Z15	X16	Y16	Z16	X17	Y17	Z17	X18	Y18	Z18	X19	Y19	Z19	X20	Y20	Z20	X21	Y21	Z21	X22	Y22	Z22
481	16.05001734304544	519.3976433677385	708.035234888256	0.0	357.33184164044917	680.9280108019539	0.0	432.1726229612773	685.4226792794399	0.0	181.40581050550895	715.0871150593762	0.0			0.0			0.0			0.0	714.1127541076062	690.1088848531174	0.0	508.43478758590163	685.4226792794399	0.0	709.9612833264594	273.4706758332129	0.0	513.93505859375	710.3623046875	0.0	836.0301041541002	273.4706758332129	0.0			0.0	509.09105257150117	396.57807794760134	0.0	473.06164184768716	45.89196485181629	0.0	460.08346267074575	219.17704128607775	0.0	256.9505264302221	469.67215333768235	0.0	187.89832658220885	714.917988131445	0.0	220.54043486462083	709.2225390443396	0.0	798.5897143467515	508.6334482580577	0.0	886.9681965223743	714.6372578367099	0.0	966.2354488958302	705.444089032486	0.0
482	16.083385362469652	521.1350856772241	709.9545635633788	0.0	356.9491565614356	681.645113794131	0.0	432.1726229612773	685.4226792794399	0.0	181.40581050550895	715.0871150593762	0.0			0.0			0.0			0.0	714.0496368497827	690.817563978036	0.0	508.43478758590163	685.4226792794399	0.0	709.9612833264594	273.4706758332129	0.0	513.93505859375	710.3623046875	0.0	836.0301041541002	273.4706758332129	0.0			0.0	508.87337724611757	396.3453406973291	0.0	471.72652896401075	46.367983204106146	0.0	458.9238625437887	219.11005006901468	0.0	256.0110808624632	469.2313085074828	0.0	186.9045640759398	716.607784736649	0.0	225.24872371073695	714.8507062125233	0.0	797.8824436272595	507.9211251089651	0.0	887.9848587450655	717.2081194723855	0.0	966.1946043430124	705.4458517824559	0.0
483	16.11675338189386	520.6020898067983	709.0403282839362	0.0	356.76926640684337	681.0739756289868	0.0	432.1726229612773	685.4226792794399	0.0	181.40581050550895	715.0871150593762	0.0			0.0			0.0			0.0	713.3824054657794	690.2431803113128	0.0	508.43478758590163	685.4226792794399	0.0	709.9612833264594	273.4706758332129	0.0	513.93505859375	710.3623046875	0.0	836.0301041541002	273.4706758332129	0.0			0.0	508.49044053530287	396.4162960702104	0.0	470.3131814963588	46.933896095045576	0.0	458.5817385619506	219.35215434109608	0.0	254.7274972568833	470.42121715613507	0.0	185.5232956522035	717.7436818885077	0.0	224.86193911192493	714.8663996017375	0.0	797.1645143240528	506.97171134936366	0.0	887.3377980923747	717.2301250332742	0.0	966.155864023702	705.4475685968561	0.0
484	16.150121401318074	518.1990537636602	705.8991087021836	0.0	356.700975801122	679.6297340467967	0.0	432.1726229612773	685.4226792794399	0.0	181.40581050550895	715.0871150593762	0.0			0.0			0.0			0.0	712.300963445442	688.8044284832063	0.0	508.43478758590163	685.4226792794399	0.0	709.9612833264594	273.4706758332129	0.0	513.93505859375	710.3623046875	0.0	836.0301041541002	273.4706758332129	0.0			0.0	508.45167773070386	396.331938082649	0.0	469.04750103406917	47.42491638913146	0.0	459.0007219460816	219.7670706944	0.0	253.34750399156619	473.0286341518063	0.0	184.4336851499382	718.0118434093844	0.0	219.29930386300555	709.1103176679873	0.0	797.4697974794817	506.0990193807666	0.0	884.671021071023	714.6803439929079	0.0	966.1495445246228	705.4478589433223	0.0
485	16.183489420742283	518.4156796026896	704.469297668398	0.0	356.7235641661255	678.0808840570205	0.0	432.1726229612773	685.4226792794399	0.0	181.40581050550895	715.0871150593762	0.0			0.0			0.0			0.0	711.2476228141738	687.2666171208145	0.0	508.43478758590163	685.4226792794399	0.0	709.9612833264594	273.4706758332129	0.0	513.93505859375	710.3623046875	0.0	836.0301041541002	273.4706758332129	0.0			0.0	508.51647501736113	397.26874875350575	0.0	467.97380647328777	46.71416984128428	0.0	459.0816539359079	220.53164618070966	0.0	252.14936025124686	475.04149470761155	0.0	184.4925575009789	718.9373184300143	0.0	218.20183976046334	707.7786707343712	0.0	798.9871137495516	505.8326761321659	0.0	883.8448353041058	714.5081674484709	0.0	966.1547923959345	705.4476317330614	0.0
486	16.216857440166496	522.2274727316891	706.0495639419128	0.0	357.01484706617157	676.9670496666246	0.0	432.1726229612773	685.4226792794399	0.0	181.40581050550895	715.0871150593762	0.0			0.0			0.0			0.0	710.7102443422102	686.1571688088633	0.0	508.43478758590163	685.4226792794399	0.0	709.9612833264594	273.4706758332129	0.0	513.93505859375	710.3623046875	0.0	836.0301041541002	273.4706758332129	0.0			0.0	508.3752004325823	399.35561166914204	0.0	467.16514483095165	44.91782618668468	0.0	458.15647984998594	221.5424423984499	0.0	251.36874057450484	475.4147459317242	0.0	185.35189878277498	720.8128482738733	0.0	224.63508234124998	714.1978029850408	0.0	801.0604150110072	506.2104779706623	0.0	886.3119642905924	718.1366994649699	0.0	966.1579733616288	705.447488412751	0.0
487	16.250225459590705	525.7857179183999	708.1120645885219	0.0	357.7473235255104	676.4103242545033	0.0	432.1726229612773	685.4226792794399	0.0	181.40581050550895	715.0871150593762	0.0			0.0			0.0			0.0	710.9194877420503	685.5710611741706	0.0	508.43478758590163	685.4226792794399	0.0	709.9612833264594	273.4706758332129	0.0	513.93505859375	710.3623046875	0.0	836.0301041541002	273.4706758332129	0.0			0.0	508.0487779563365	401.0770225064343	0.0	466.6707391237359	43.61009483139738	0.0	456.52868890334145	222.3261522561982	0.0	251.0450304053702	474.9370130821643	0.0	185.6369056011237	722.2117046143904	0.0	231.54972871415	721.0731921649306	0.0	802.728157387923	506.68142126367644	0.0	889.3505516309082	721.7616496219307	0.0	966.1581438958727	705.4474666458281	0.0
